<svg id="visual" viewBox="0 0 900 600" width="900" height="600" xmlns="http://www.w3.org/2000/svg" xmlns:xlink="http://www.w3.org/1999/xlink" version="1.1"><rect x="0" y="0" width="900" height="600" fill="#002233"></rect><path d="M0 494L21.5 490.3C43 486.7 86 479.3 128.8 478.3C171.7 477.3 214.3 482.7 257.2 477C300 471.3 343 454.7 385.8 450.3C428.7 446 471.3 454 514.2 469.2C557 484.3 600 506.7 642.8 508.3C685.7 510 728.3 491 771.2 483.2C814 475.3 857 478.7 878.5 480.3L900 482L900 601L878.5 601C857 601 814 601 771.2 601C728.3 601 685.7 601 642.8 601C600 601 557 601 514.2 601C471.3 601 428.7 601 385.8 601C343 601 300 601 257.2 601C214.3 601 171.7 601 128.8 601C86 601 43 601 21.5 601L0 601Z" fill="#0066FF" stroke-linecap="round" stroke-linejoin="miter"></path></svg>